<?xml version="1.0" encoding="utf-8"?>
<!-- Generator: Adobe Illustrator 25.0.1, SVG Export Plug-In . SVG Version: 6.00 Build 0)  -->
<svg version="1.1" id="圖層_1" xmlns="http://www.w3.org/2000/svg" xmlns:xlink="http://www.w3.org/1999/xlink" x="0px" y="0px"
	 viewBox="0 0 512 512" style="enable-background:new 0 0 512 512;" xml:space="preserve">
<style type="text/css">
	.st0{fill:#DEE5F4;}
	.st1{fill:#1C57EC;}
	.st2{fill:#DDEFFE;}
	.st3{fill:#FEC35C;}
	.st4{fill:#3B6CEE;}
	.st5{fill:#4ADAFE;}
	.st6{fill:#3B6BEE;}
	.st7{fill:#46CCFE;}
	.st8{fill:#87CBFE;}
	.st9{fill:#86CBFE;}
	.st10{fill:#4EE6FE;}
	.st11{fill:#64AAF7;}
	.st12{fill:#5EBAFE;}
	.st13{fill:#FECF49;}
	.st14{fill:#CBE8FE;}
	.st15{fill:#37338F;}
	.st16{fill:#5FBBFE;}
	.st17{fill:#5591F3;}
	.st18{fill:#EBAE42;}
	.st19{fill:#2B6DEF;}
	.st20{fill:#FDD07F;}
	.st21{fill:#FE8CDE;}
	.st22{fill:#E4E6F3;}
	.st23{fill:#FD8CDF;}
	.st24{fill:#133FC4;}
	.st25{fill:#5652B8;}
	.st26{fill:#38338F;}
	.st27{fill:#DDE4F4;}
	.st28{fill:#FD8BDE;}
	.st29{fill:#8BC0FE;}
	.st30{fill:#37338E;}
	.st31{fill:#464499;}
	.st32{fill:#FDD080;}
	.st33{fill:#5FA8FD;}
	.st34{fill:#86CAFD;}
	.st35{fill:#1D58EC;}
	.st36{fill:#DFE5F3;}
	.st37{fill:#C0DDFE;}
	.st38{fill:#3B6FCB;}
	.st39{fill:#2155C7;}
	.st40{fill:#C9CBE3;}
	.st41{fill:#C0DEFE;}
	.st42{fill:#E6E8F3;}
	.st43{fill:#E5E7F2;}
	.st44{fill:#DDE5F4;}
	.st45{fill:#C1DEFE;}
	.st46{fill:#393590;}
	.st47{fill:#EFB95D;}
	.st48{fill:#3C3792;}
	.st49{fill:#EFB85B;}
	.st50{fill:#EFB95C;}
	.st51{fill:#514EA8;}
	.st52{fill:#DFE6F4;}
	.st53{fill:#E3E6F3;}
	.st54{fill:#292576;}
	.st55{fill:#F6CDCE;}
	.st56{fill:#FCD8DA;}
	.st57{fill:#BBDAFE;}
	.st58{fill:#3D3992;}
	.st59{fill:#C8E0FE;}
	.st60{fill:#C7E0FE;}
	.st61{fill:#B7BDD6;}
	.st62{fill:#ABBBD6;}
	.st63{fill:#C8E1FE;}
	.st64{fill:#3F3B94;}
	.st65{fill:#F9CECE;}
	.st66{fill:#ABBAD7;}
	.st67{fill:#E6C2CA;}
	.st68{fill:#E8CCD5;}
	.st69{fill:#60B3F4;}
	.st70{fill:#C6E0FE;}
	.st71{fill:#4A3F99;}
	.st72{fill:#E6E3E6;}
	.st73{fill:#AABDD7;}
	.st74{fill:#FDFCFD;}
	.st75{fill:#95AAD0;}
	.st76{fill:#FEA5E5;}
	.st77{fill:#FBFCFB;}
	.st78{fill:#1541C6;}
	.st79{fill:#3A6AED;}
	.st80{fill:#264CC6;}
	.st81{fill:#3A82F2;}
	.st82{fill:#4593F5;}
	.st83{fill:#5A9BF5;}
	.st84{fill:#FEFDFB;}
	.st85{fill:#FEFCFA;}
	.st86{fill:#2A54C8;}
	.st87{fill:#215EED;}
	.st88{fill:#FCFDFD;}
	.st89{fill:#FBFDFE;}
	.st90{fill:#B8E9FB;}
	.st91{fill:#B6E9FD;}
	.st92{fill:#C5EAFD;}
	.st93{fill:#D7EEFC;}
	.st94{fill:#E5F3FD;}
	.st95{fill:#E1EFFC;}
	.st96{fill:#FEBC50;}
	.st97{fill:#FEC74C;}
	.st98{fill:#284EC6;}
	.st99{fill:#60BBFD;}
	.st100{fill:#BFF6FE;}
	.st101{fill:#D3F8FE;}
	.st102{fill:#C4F7FE;}
	.st103{fill:#DEFAFE;}
	.st104{fill:#FEFDFC;}
	.st105{fill:#FCFCFC;}
	.st106{fill:#484498;}
	.st107{fill:#444196;}
	.st108{fill:#EFC6C7;}
	.st109{fill:#3B3B94;}
	.st110{fill:#FAFAFD;}
	.st111{fill:#85CAFD;}
	.st112{fill:#E5A334;}
	.st113{fill:#EFBA5E;}
	.st114{fill:#E5A438;}
	.st115{fill:#EEB85B;}
	.st116{fill:#E5A335;}
	.st117{fill:#E5A233;}
	.st118{fill:#F9FAFE;}
	.st119{fill:#9393C4;}
	.st120{fill:#47459A;}
	.st121{fill:#F6D1DE;}
	.st122{fill:#61A9FE;}
	.st123{fill:#393993;}
	.st124{fill:#63BAFA;}
	.st125{fill:#FEF6FC;}
	.st126{fill:#FEF7FC;}
	.st127{fill:#FEAE56;}
	.st128{fill:#FD9CEE;}
	.st129{fill:#FDBF5F;}
	.st130{fill:#FEF4E8;}
	.st131{fill:#FEEFD9;}
	.st132{fill:#FEE6C3;}
	.st133{fill:#FEE8C2;}
	.st134{fill:#FEE7C0;}
	.st135{fill:#FEE9C4;}
	.st136{fill:#FEE8C6;}
	.st137{fill:#FEE6C2;}
	.st138{fill:#FEE7C5;}
	.st139{fill:#FEE9C6;}
	.st140{fill:#FEEAC4;}
	.st141{fill:#FEE6C6;}
	.st142{fill:#FEE2BC;}
	.st143{fill:#FEEBC6;}
	.st144{fill:#FEE9C3;}
	.st145{fill:#FEE9BB;}
	.st146{fill:#FEE9C0;}
	.st147{fill:#FEFEFE;}
	.st148{fill:#FEFAFD;}
	.st149{fill:#FDCF7E;}
	.st150{fill:#FDCF7F;}
	.st151{fill:#8ABFFE;}
	.st152{fill:#FEFDFD;}
</style>
<g>
	<path class="st0" d="M128.58,325.78c-8.4-3.58-15.97-8.68-23.86-13.17C85.81,301.83,67,290.88,48.13,280.02
		c-10.71-6.16-21.46-12.25-32.14-18.46c-3.16-1.84-3.02-3.39,0.09-5.19c24.57-14.25,49.13-28.53,73.69-42.79
		c0.94-0.54,2.12-0.79,2.86-1.52c7.1-6.98,13.74-3.99,20.24,0.9c3.81,2.87,8.62,4.14,11.99,7.67c4.67,2.03,4.21,6.02,3.83,9.99
		c-1.06,7.25-0.31,14.54-0.54,21.81c-0.07,2.3,0.27,4.67-0.89,6.83c-3.47,0.74-2.59-2.15-2.68-3.63
		c-0.31-5.02-0.12-10.06-0.18-15.09c-0.04,4.65,0.12,9.3-0.11,13.93c-0.28,5.58,0.25,10.81,4.28,15.14
		c0.85,3.03,0.55,6.12,0.56,9.19c0.05,14.16-0.03,28.31,0.04,42.47C129.17,322.79,129.4,324.36,128.58,325.78z"/>
	<path class="st1" d="M177.89,315.27c-9.85,5.71-19.72,11.4-29.56,17.14c-3.18,1.85-6.28,2.51-9.35-0.17
		c-1.06-1.17-2.16-2.33-2.26-4.04c-0.2-13.48-0.02-26.96-0.11-40.44c-0.02-2.74,0.63-5.2,2.06-7.49c4.85-7.75,9.53-15.6,14.54-23.24
		c1.58-2.18,3.9-3.44,6.18-4.68c3.1-1.68,5.48-3.91,6.46-7.4c2.75-3.86,2.22-8.48,2.95-12.81c3.93-6.78,8.32-13.28,12.33-20.02
		c0.75-1.25,1.34-3.34,3.69-2.45c1.72,4.35,0.58,8.88,0.82,13.32c0.18,3.24-0.06,6.51,0.08,9.76c0.23,5.44,3.27,7.3,8.02,4.71
		c5.44-2.96,10.82-6.06,16.15-9.23c8.52-5.08,17.23-9.85,25.8-14.85c1.58-0.93,3.17-2.04,5.2-1.49c0.39,0.26,0.83,0.68,0.64,1.08
		c-2.91,6.11-5.63,12.36-11.25,16.65c-2.52-0.3-4.84,0.07-7.11,1.41c-20.3,11.96-40.78,23.59-61.2,35.35
		c-4.58,2.63-7.67,6.12-9.47,10.95c-1.05,1.75-1.92,3.64-2,5.65c-0.35,9.3-0.45,18.61,0,27.9c0.26,5.35,4.13,7.14,8.85,4.37
		c6.96-4.08,14.04-7.95,20.96-12.1c1.45-0.87,2.82-1.98,4.67-1.83c1.86,1.34,0.58,2.73-0.08,3.95
		C182.95,308.85,180.98,312.45,177.89,315.27z"/>
	<path class="st2" d="M127.66,229.96c0.23-3.46,0.09-6.8-2.8-9.32c3.08-0.74,1.8-3.25,1.81-4.98c0.08-25.54,0.43-51.09-0.1-76.62
		c-0.28-13.31,5.71-21.56,16.84-27.8c26.65-14.96,53.13-30.23,79.47-45.72c7.33-4.31,12.18-0.49,17.47,3.35
		c-7.44,3.7-14.61,7.9-21.83,12.01c-6.42,3.53-12.68,7.34-18.98,11.09c-6.82,3.64-13.52,7.48-20.08,11.58
		c-9.88,5.8-19.83,11.48-29.73,17.24c-7.76,4.51-11.65,11.12-11.52,20.23c0.21,14.69-0.09,29.39,0.15,44.09
		c-0.32,12.38,0.08,24.75,0.02,37.12C136.64,227.32,132,228.43,127.66,229.96z"/>
	<path class="st3" d="M374.62,221.75c-1.98,2.05-4.43,2.69-6.67,0.97c-3.29-2.52-6.04-2.19-9.02,0.37c-2.3,1.97-4.28,1.73-4.96-1.54
		c-1.37-6.59-5.48-10.65-11.4-13.5c-3.78-1.82-5.35-5.4-5.34-9.61c0.03-8.36,0.09-16.73,0-25.09c-0.03-2.84,1-4.76,3.62-5.82
		c1.63,0.02,2.94,0.86,4.3,1.61c7.31,4.06,14.42,8.49,21.78,12.48c5.44,2.95,8.01,7.44,7.87,13.66
		C374.59,204.1,374.98,212.93,374.62,221.75z"/>
	<path class="st4" d="M137.89,223.55c-0.99-0.55-0.89-1.52-0.89-2.42c0.02-12.27,0.06-24.53,0.1-36.8c1.7-2.87,3.2-6.09,7.56-4.43
		c0.22,0.97,0.03,1.95-0.55,2.66c-5.14,6.23-5.47,13.56-5.01,21.11c0.09,1.53,0.02,3.07-0.37,4.57c-0.08,0.6,1,0.32,0.37,0.31
		c-0.18,0-0.23-0.16-0.13-0.45c1.45-3.93,3.18-7.67,6.92-10.03c5.36,5.46,5.34,5.42,12.41,1.28c14.56-8.53,29.26-16.81,43.81-25.35
		c1.33-0.78,2.62-1.72,4.32-1.22c1.56,1.68-0.09,2.84-0.79,4.01c-1.5,2.51-2.96,5.04-4.47,7.55c-0.1,0.12-0.18,0.28-0.31,0.35
		c-15.86,8.8-13.61,8.18-13.66,24.79c-0.02,6.81-0.09,13.61-0.14,20.42c-2.47-0.64-1.6-2.71-1.62-4.2
		c-0.1-6.97-0.06-13.93-0.04-20.72c-0.28,1.38,0.54,3.2-1.06,4.46c-4.23,6.68-8.47,13.35-12.66,20.04
		c-0.57,0.92-1.03,1.87-2.08,2.34c-2.2-2.5-1.12-5.54-1.37-8.36c-0.29-3.3,0.71-6.78-1.51-9.77c-2.43-2.75-4.89-2.96-8.15-0.97
		c-5.41,3.29-10.84,6.58-16.43,9.58C140.82,223,139.62,224.16,137.89,223.55z"/>
	<path class="st5" d="M196.63,190.9c16.99-9.9,33.98-19.81,50.97-29.69c4.82-2.8,9.63-5.65,14.55-8.28c3.63-1.94,5.26-1,5.37,3.06
		c0.25,9.44,0.33,18.89,0.51,28.34c0.07,3.6-1.37,6.61-3.48,9.38c-3.39,3.91-7.49,6.66-12.62,7.77c-3.24-1.89-1.59-4.7-1.36-7.24
		c0.05-4.44-0.01-8.89,0.03-13.34c-0.09,4.44,0.06,8.89-0.08,13.34c-0.11,1.35-0.61,2.49-1.73,3.31c-1.22,0.19-2.02-0.4-2.6-1.4
		c-1.52-4.87-0.03-9.71,0.27-14.56c-0.09,1.65,0.07,3.33-0.82,4.85c-2.54,2.95,0.02,7.12-2.39,10.1c-1.79,0.09-2.08-1.31-1.86-2.44
		c0.62-3.14,0.18-6.31,0.39-9.45c-0.14,2.49,0.01,4.98-0.09,7.47c-2.13,1.81-2.6-0.4-3.56-1.44c-0.43-0.81-0.49-1.74-0.71-2.62
		c-0.15-0.59-0.65-0.79-0.32-0.27c0.01,0.01-0.21,0.16-0.32,0.27c-0.7,0.96-1.47,1.7-2.77,1.29c-1.11-3.28-1.57,0.73-2.43,0.22
		c-0.9,0.28-1.75,0.23-2.55-0.31c-0.21-0.23-0.42-0.47-0.5-0.76c-2.09-7.69-2.25-7.69-9.2-3.71c-5.04,2.89-9.79,6.25-14.94,8.96
		C201.48,193.64,197.9,195.37,196.63,190.9z"/>
	<path class="st0" d="M462.8,299.79c11.85,6.97,23.66,14,35.56,20.87c2.76,1.59,3.14,2.44,0.08,4.18
		c-10.74,6.12-21.35,12.45-32.04,18.66c-0.78,0.45-1.74,0.59-2.61,0.87c-1.71-0.58-2.08-2.19-2.63-3.58
		c-2.92-7.3-6.03-14.51-9.02-21.78c-1.31-3.19-1.15-5.69,1.28-8.42C456.59,307.05,459.85,303.55,462.8,299.79z"/>
	<path class="st6" d="M177.89,315.27c2.51-4.53,5.02-9.07,7.53-13.6c0.22-1.53,1.39-2.26,2.54-3.01
		c12.06-6.35,23.56-13.69,35.51-20.23c3-1.64,4.7-4.4,5.83-7.55c2.52-4.21,2.44-8.86,2.28-13.52c-0.12-6.56-0.06-13.12-0.06-19.69
		c0-2.47-0.16-4.88-1.51-7.05c-0.24-0.52-0.23-1.04,0.02-1.56c4.77-4.92,7.65-11.09,11.18-16.84c-0.03-2.76,3.2-4.29,2.73-7.22
		c0.84-0.79,1.65-0.8,2.43,0.09c0.67,1.28,0.24,2.43-0.39,3.57c-0.03,17.64-0.04,35.28-0.1,52.92c-0.01,1.97,0.51,4.04-0.73,5.87
		c-2.3-2.27-0.79-5.25-1.54-8.22c-6.4,9.5-11.43,19.53-18.17,28.45C209.59,296.87,193.74,306.07,177.89,315.27z"/>
	<path class="st7" d="M245.78,204.85c-0.71,0.02-1.34,0.18-1.71,0.86c-0.51,1.85-2.14,2.61-3.58,3.42
		c-14.56,8.19-28.93,16.72-43.48,24.92c-2.6,1.47-5.57,2.99-7.51-1.11c1.18-10.3,0.26-20.64,0.44-30.95
		c0.09-5.06,1.7-9.05,6.68-11.09c2.26,3.02,5.53,1.43,8.37,1.84c-0.39,6.58-0.88,13.15-0.65,19.75c0.21,5.91,1.49,6.7,6.6,3.9
		c3.38-1.85,6.67-3.88,10.01-5.79c4.77-2.73,6.78-6.83,6.97-12.21c0.11-3.14-0.98-6.5,1.23-9.39c0.95,0,1.9,0,2.85,0
		c1.65,4.36,0.91,8.91,1.35,12.97c0.11-2.46-0.22-5.34-0.35-8.23c-0.08-1.62-0.68-3.43,0.98-4.72c1.35,0.07,1.63-1.21,2.39-1.89
		c2.45,3.46,0.44,7.37,1.18,10.46c0.55-2.15-1.09-5.14,1-7.64c0.85,0.93,1.7,1.86,2.55,2.79c1.16,1.86,0.43,3.8,0.68,5.52
		c0.35-0.24,0.2-1.5,1.22-1.74c0.04-2.29,0.08-4.58,0.11-6.87c0.02-1.52-0.24-3.19,1.94-3.52c0.15,0.16,0.3,0.31,0.45,0.47
		c0.84,2.89,0.15,5.86,0.44,8.78c0.11,0.59,0.39,1.02,1.05,1.08c0.52,0.32,1.05,0.64,1.57,0.96c1.59,1.47,1.35,3.25,0.89,5.08
		C248.74,204.07,247.55,204.92,245.78,204.85z"/>
	<path class="st8" d="M330.65,276.59c-11.71-2.46-22.42-14.3-23.15-26.58c-0.56-9.41-0.15-18.88-0.16-28.32
		c0-0.79,0.17-1.53,0.99-1.92c7.73,3.19,8.66,4.55,8.68,12.73c0.01,5.56-0.04,11.12,0.02,16.68c0.05,4.08,0.78,8.03,3.21,11.42
		c1.55,2.16,3.41,4.27,6.41,3.85c3.26-0.46,2.01-3.72,3.04-5.59c1.56-0.88,1.03-2.39,1.09-3.69c0.29-6.85,0.54-13.7,0.81-20.56
		c4.68-0.26,9.28,2.51,9.37,6.65c0.23,10.85,1.8,21.8-1.3,32.53C337.51,277.4,334.37,277.91,330.65,276.59z"/>
	<path class="st9" d="M429.33,333.1c-4.17,0.2-6.91-2.82-10.22-4.54c-0.66-0.87-0.43-1.75,0-2.6c0.56-1.11,1.24-2.19,2.12-3.03
		c6.45-6.18,9.87-12.88,4.11-20.51c0.18,1.29,1.75,3.78-1.75,4.8c-1.11-1.3-1.04-2.89-0.97-4.41c0.2-4.41-0.44-8.6-2.5-12.56
		c-0.71-1.37-1.37-3.05-0.08-4.33c1.36-1.35,2.88-0.27,4.26,0.39c4.05,1.95,7.15,4.7,8.46,9.25c0.85,2.96,1.97,5.85,3.24,8.67
		c0.48,1.06,0.52,2.7,2.09,2.72c1.39,0.02,1.87-1.45,2.65-2.36c1.13-1.33,1.42-3.07,2.17-4.58c1.35-1.02,2.88-0.91,4.43-0.66
		c9.09,5.99,9.08,5.98,2.42,14.27c-0.87,1.08-1.71,2.19-2.73,3.14c-1.97,1.83-2.14,3.82-1.14,6.27c2.79,6.85,5.59,13.7,8.22,20.61
		c0.63,1.66,1.89,3.33,0.47,5.2c-3.78-1.97-7.91-3.42-10.45-7.18c-3.77-4.1-4.45-9.68-6.9-14.4c-0.54-1.2-1.13-2.47-2.53-0.82
		c-1.28,1.51-2.41,3.14-2.95,5.09C431.33,332.65,430.53,333.18,429.33,333.1z"/>
	<path class="st10" d="M227.72,120.62c1.08-6.31,0.4-12.67,0.4-19c0-3.69,1.2-6.11,4.46-7.9c7.47-4.11,14.83-8.42,22.2-12.71
		c2.89-1.68,4.29-1.19,4.24,2.38c-0.07,5.89-0.12,11.79,0.05,17.68c0.07,2.67-1.49,4.28-3,6.03c-2.91,3.57-7.47,4.68-10.99,7.35
		c-3.72,2.24-7.47,4.44-11.33,6.43C231.86,121.87,229.61,123.29,227.72,120.62z"/>
	<path class="st11" d="M218,80.16c7.3-4.06,13.73-9.87,22.36-11.29c4.09,1.17,4.59,4.35,4.85,7.98c0.27,3.66-0.74,6.05-4.25,7.73
		c-4.31,2.06-8.29,4.79-12.51,7.06c-2.93,1.58-4.12,3.8-4.04,7.13c0.14,5.55-0.05,11.12-0.1,16.67c-2.17-0.34-1.81-2.17-1.9-3.54
		c-0.18-2.71-0.15-5.44,0-8.16c0.03-0.62,0.07,0.17,0.04-0.44c0-0.04-0.08,0.25-0.2,0.38c-0.59,7.12-0.59,7.12-7.64,6.74
		c-2.31-0.13-4.63,0.01-6.94-0.13c-2.08-0.12-4.01-0.53-4.95-2.71c-0.6-1.6-0.07-3.05,0.78-4.37C208.37,95.55,212.62,87.5,218,80.16
		z"/>
	<path class="st12" d="M339.02,273.67c1.57-8.97,0.28-18.07,1.1-27.02c0.65-7-2.63-10.19-8.52-12.05c5.81-5.8,9.22-6.04,15.35-1.51
		c2.13,1.58,1.24,3.59,1.52,5.47c0.16,1.07-0.01,3.38,1.73,2.03c5.45-4.24,9.07-0.25,13.1,2.31c1,1.8,1.23,3.75,1.26,5.79
		c0.18,11.54-0.4,23.08,0.31,34.61c0.15,2.48-0.88,4.51-3.5,5.33c-1.86,0.9-3.71,1.8-5.57,2.7c-1.68-1.78-1.35-4.03-1.36-6.16
		c-0.05-10.36-0.13-20.72,0.03-31.08c0.07-4.42-1.92-6.86-6.3-8.25c-0.85,7.54,0.35,14.94-0.7,22.24
		C345.63,271.41,343.21,273.87,339.02,273.67z"/>
	<path class="st13" d="M228.19,156.32c0.01-6.67,0.05-13.34,0-20c-0.02-2.72,0.89-4.79,3.31-6.18c7.79-4.48,15.58-8.99,23.35-13.51
		c2.81-1.63,4.28-1.3,4.21,2.36c-0.11,5.89-0.08,11.79,0.01,17.68c0.04,2.58-1.06,4.45-2.96,6c-2.5,3.64-6.95,4.47-10.17,7.08
		c-4.22,2.15-8.22,4.68-12.37,6.93C231.8,157.63,229.78,159.33,228.19,156.32z"/>
	<path class="st0" d="M273.92,278.33c8.5-0.21,17-0.15,24.97,3.31c2.2,0.95,5.48,1.39,5.23,4.88c-0.24,3.4-2.18,6.14-5.36,7.15
		c-8.97,2.85-18.01,4.55-27.57,2.35c-3.32-0.76-6.96-0.48-10.28-1.75c-1.43-0.55-2.94-1.06-4.14-1.96
		c-4.44-3.31-4.44-5.57-0.31-9.17c1.14-1,2.86-1.32,3.49-2.92c1.72-0.07,1.61,1.28,1.86,2.36c0.03,1.62-0.61,3-1.75,4.43
		c2.25-1.5,2.25-1.5,2.45-4.54c0.09-0.98,0.32-1.91,0.97-2.69c1.96-1.63,4.19-1.94,6.6-1.35c2.69,1.26,3.06,3.65,3.02,6.22
		c-0.01,0.27-0.07,0.58-0.01,0.86c0.12,0.62,0.43,0.5,0.81,0.18c2.36-2.01-0.34-3.32-0.68-4.96
		C273.05,279.81,273.11,278.95,273.92,278.33z"/>
	<path class="st9" d="M406.09,320.28c-7.15-1.42-12.27-5.88-16.85-11.17c-4.56-2.73-5.5-7.54-6.77-12.06
		c-1.33-4.76-1.51-9.65-0.27-14.52c1.64-1.64,2.58-0.07,3.68,0.79c1.64,2.03,1.65,4.47,1.59,7.15c1.8-0.73,1.91-2.28,2.46-3.61
		c1-2.41,2.07-1.64,3.03,0.1c0.65,2.9,0.41,5.84,0.33,8.75c-0.11,4.55,1.88,7.99,5.14,10.89c1.42,1.26,2.96,2.46,4.96,1.59
		c1.83-0.79,1.94-2.61,1.99-4.35c0.02-0.77,0-1.54,0.12-2.31c0.16-6.18,0-12.34,0.12-18.51c0.04-2.09-0.38-4.41,1.84-5.86
		c7.62,2.17,9.26,4.26,9.28,11.97c0.02,6.31-0.04,12.62,0.02,18.93c0.03,3.27-0.33,6.45-1.65,9.47
		C412.96,321.21,409.71,321.35,406.09,320.28z"/>
	<path class="st12" d="M414.49,317.44c1.7-9.81,0.38-19.71,1.01-29.54c0.27-4.18-1.09-6.72-4.85-8.23c-1.14-0.46-2.26-1.02-2.73-2.3
		c1.09-3.12,3.66-4.03,6.59-4.42c3.91,1.5,8.15,2.5,10.14,6.85c0.16,0.35,0.59,0.88,0.82,0.84c5.76-0.89,9.02,3.53,13.13,6.12
		c2.72,3.9,5.36,7.83,4.76,12.95c1.17,4.63-2.8,6.78-5,9.6c-1.04,1.34-1.91-0.94-2.31-1.88c-1.91-4.53-3.97-9.03-5.37-13.72
		c-1.38-4.65-5.68-5.36-8.93-7.32c-1.76-1.06-1.87,1.03-1.2,2.06c3.81,5.81,3.23,12.34,3.28,18.78
		C424.83,312.44,420.74,316.92,414.49,317.44z"/>
	<path class="st14" d="M137.8,328.75c0.39,1.16,0.79,2.32,1.18,3.48c-3.74-1.71-7.48-3.42-10.4-6.45c-1.14-1.82-0.93-3.84-0.93-5.84
		c0-16.96,0-33.91,0-50.87c2.13-0.83,4.44-1.02,6.53-2.05c1.5-0.74,3.02-0.63,3.74,1.31c0.74,4.76,1,9.51-0.18,14.22
		c-0.39,1.54-0.33,3.06-0.31,4.6C137.64,301.02,136.94,314.89,137.8,328.75z"/>
	<path class="st15" d="M258.93,272.81c-2.49-0.61-3.25-2.46-3.74-4.75c-2.31-10.68-1.6-21.24,1.03-31.74
		c3.45-1.9,6.77-0.55,10.1,0.43c4.64,4.64,3.95,10.5,3.86,16.28c-0.06,3.9,1.38,7.5,2.79,11.05c0.8,2.01,1.29,3.82-0.98,5.18
		c-2.06,1.5-4.75-0.3-6.78,1.33c-0.51,0.38-1.01,0.78-1.51,1.16C262.22,272.59,260.87,274.03,258.93,272.81z"/>
	<path class="st16" d="M329.71,258.84c1.25,2.39,1.76,4.83-0.78,6.63c-2.42,1.72-4.8,0.64-6.83-0.94
		c-4.49-3.51-6.13-8.46-6.28-13.89c-0.18-6.66-0.21-13.34,0.03-20c0.14-3.8-0.58-6.7-4.53-8.08c-1.35-0.47-2.34-1.49-2.97-2.81
		c1.04-0.67,2.24-1.18,3.09-2.03c3.56-3.61,6.49-1.06,9.85,0.52c3.34,1.58,3.71,3.98,3.63,7.14c-0.17,6.64,0.09,13.3-0.12,19.94
		C324.61,250.58,326.1,255.05,329.71,258.84z"/>
	<path class="st17" d="M203.08,106.2c0.74,2.27,2.33,2.85,4.65,2.86c3.53,0,7.11-0.61,10.61,0.52c2.01,0.65,2.33-0.66,2.44-2.26
		c0.12-1.64-0.57-3.44,0.85-4.86c1.38,1.19,0.95,2.81,0.99,4.29c0.08,3.66,0.46,7.37,0.27,10.97c-0.22,4.38,2.2,7.04,4.53,9.98
		c-2.28,1.93-3.14,4.26-3.02,7.35c0.24,6.18,0.03,12.38,0,18.57c-2.29-0.35-1.81-2.11-1.78-3.59c0.05-3.56,0.01-7.13,0.03-10.69
		c-0.09,3.38,0.13,6.77-0.13,10.15c-1.72,4.18-4.86,7.53-6.66,11.67c-0.55,1.26-1.57,1.41-2.38,0.01c-1.01-2.84-0.61-5.79-0.62-8.69
		c-0.05-10.3-0.01-20.6-0.03-30.9c0-2,0.03-4.01-0.78-5.88c-2.49-3.04-4.95-1.09-7.46-0.01c-3,1.3-5.21,4.53-9.08,3.71
		C195.31,113.43,198.77,109.57,203.08,106.2z"/>
	<path class="st18" d="M374.62,221.75c-1.66-1.26-1.1-3.09-1.11-4.72c-0.05-7.71-0.03-15.43-0.02-23.14
		c0.01-4.32-1.53-7.75-5.41-9.99c-7.2-4.15-14.33-8.39-21.54-12.52c-2-1.15-4.08-2.15-5.69-3.85c3.8-3.43,7.42-2.94,11.61-0.26
		c6.9,4.42,14.11,8.36,21.26,12.38c4.36,2.45,6.38,5.99,6.29,10.99c-0.14,7.58-0.29,15.18,0.03,22.76
		C380.23,217.78,378.88,220.55,374.62,221.75z"/>
	<path class="st12" d="M454.57,348.84c-2.63-9.05-6.74-17.53-10.19-26.26c-1.04-2.62-0.78-4.18,1.16-6.07
		c2.53-2.47,4.59-5.42,7.13-7.88c2.29-2.21,1.71-3.67-0.66-5.01c-1.87-1.06-4.02-1.73-4.98-3.93c1.07-3.26,3.89-3.86,6.73-4.44
		c3.01,1.51,6.03,3.03,9.04,4.54c-0.64,5.06-5.19,7.4-7.98,10.86c-2.37,2.93-2.92,5.03-1.37,8.5c3.7,8.3,6.93,16.81,10.35,25.23
		C460.84,346.12,458.32,348.76,454.57,348.84z"/>
	<path class="st19" d="M214.37,162.03c1.59-4.55,4.14-8.52,7.22-12.19c1.74,1.75,1.05,4.04,1.28,6.1c0.6,5.29,3.09,6.68,7.8,4.01
		c3.34-1.89,6.69-3.79,9.99-5.75c1.28-0.76,2.46-1.94,4.19-1.46c1.18,4.8-0.95,7.42-5.19,9.72c-12.96,7.05-25.68,14.55-38.5,21.87
		c0.07-4.63,3.69-7.47,5.62-11.16c0.49-2.96,4.06-4.22,4.08-7.43C211.83,164.31,212.45,162.55,214.37,162.03z"/>
	<path class="st12" d="M406.02,302.74c1.79,2.54,0.66,5.09-1.11,6.52c-1.99,1.62-4.45,0.85-6.64-0.95c-5.13-4.2-6.9-9.5-6.2-15.91
		c0.22-1.97,0.09-3.98,0.12-5.98c0.09-1.36-1.24-2.26-1.17-3.61c-0.26-2.27-0.35-4.57-0.13-6.81c0.35-3.63-0.7-6.54-3.6-8.77
		c3.27-3.72,7.68-3.84,12.13-3.85c0.35,0.33,0.71,0.66,1.06,0.99c1.25,1.73,1.39,3.73,1.38,5.77c0,3.56,0.19,7.14-0.04,10.69
		C401.36,288.52,402,295.94,406.02,302.74z"/>
	<path class="st20" d="M399.57,361.15c1.7-3.72,5.37-6.04,7-9.84c0.14-0.32,1.19-0.48,1.73-0.35c4.21,0.99,8.01,1,11.46-2.43
		c1.23-1.22,3.74-0.64,5.01,0.99c2.08,2.66,4.55,2.65,7.47,1.88c3.16-0.83,5.6-0.21,5.65,3.8c0.01,1.08,0.1,2.05,1.18,2.82
		c4.64,3.28,5.22,5.44,3.26,11.31c-0.5-0.41-0.68-0.99-0.9-1.58c-0.5-1.32,0.49-3.66-1.68-3.78c-2.3-0.12-1.3,2.32-1.93,3.54
		c-1.96,3.77-5.3,2.98-8.54,2.37c-1.77-0.25-3.29,0.27-4.59,1.48c-2.93,1.64-5.78,1.76-8.49-0.46c-1.46-1.36-3.14-1.92-5.12-1.42
		c-3.81,0.35-7.56,0.92-7.48-4.97C403.63,362.61,400.52,362.8,399.57,361.15z"/>
	<path class="st9" d="M346.46,269.18c0-8.46,0-16.92,0-25.51c8.28,2.38,9.33,3.72,9.33,11.43c0,12.07,0,24.14,0,36.22
		c-3.72-0.86-6.97-2.5-9.41-5.53C344.37,280.24,344.23,274.7,346.46,269.18z"/>
	<path class="st20" d="M158.41,354.47c-1.86-2.16-0.64-4.73-0.92-7.09c-0.39-3.27,1.84-4.25,4.44-4.85c0.7-0.16,1-0.71,1.01-1.37
		c0.14-5.74,3.47-5.52,7.67-4.35c2.08,0.58,4.05,0.22,5.76-1.84c1.97-2.37,4.88-2.39,6.9-0.03c2.03,2.37,4.16,2.61,6.95,2.07
		c3.51-0.67,6.74-0.47,6.38,4.55c-0.1,1.4,0.84,1.76,2.05,1.95c2.09,0.33,2.81,1.7,2.44,3.71c-2.21,1.86-5.05,2.57-5.77,6.5
		c-0.49,2.73-4.54,2.06-7.27,1.37c-1.45-0.21-2.87-0.27-4.12,0.72c-2.81,2.59-5.72,3.77-8.93,0.62c-1.41-1.63-3.14-2.34-5.3-1.85
		c-3.41,0.23-7.13,1.02-7.31-4.29c-0.03-0.81-0.48-1.5-1.48-1.36c-0.68,0.09-1.01,0.62-1.19,1.24
		C159.33,351.61,159.73,353.31,158.41,354.47z"/>
	<path class="st21" d="M316.76,372.29c0.7-5.63,0.7-5.63-5.02-5.63c-4.02,0-8.03,0.05-12.05-0.02c-2.2-0.04-3.68,0.22-2.81,3.06
		c0.28,0.92-0.53,2.16-0.3,3.13c0.58,2.45,0.21,4.69-2.47,4.82c-2.35,0.11-2.91-2.59-3.32-4.42c-1.65-7.3,6.25-17.87,13.78-18.7
		c1.57-0.34,3.14-0.61,4.7,0.03c8.77,1.59,14.01,9.32,13.92,20.52c-1.74,3.02-3.89,3.27-5.5,0.66
		C317.02,374.67,317.45,373.34,316.76,372.29z"/>
	<path class="st22" d="M216.95,425.18c0.16,2.33,0.63,5.03-2.01,6.11c-2.56,1.04-5.28,1.05-7.96-0.55
		c-9.93-5.92-20.01-11.59-29.91-17.57c-2.08-1.25-3.74-1.4-5.96-0.69c-9.37,2.98-18.42,1.91-26.83-3.1
		c-3.77-2.24-6.3-5.53-5.24-10.4c0.63,0.03,1.26,0.17,1.69,0.64c8.44,9.2,19.13,8.7,30.02,6.72c2.97-0.54,5.46-0.2,7.94,1.29
		c8.95,5.69,18.22,10.86,27.43,16.12C209.38,426.78,213.17,425.91,216.95,425.18z"/>
	<path class="st23" d="M266.32,236.74c-3.43,1.46-6.69-1.32-10.1-0.43c0.3-8.28-0.91-16.15-5.59-23.28
		c-1.04-1.58-1.28-3.68-1.89-5.54c-1.36-1.51-1-3.03-0.04-4.55c-0.04-1.84-0.08-3.69-0.12-5.53c0.39-0.89,0.78-1.78,1.17-2.67
		c0.54-0.71,1.08-0.71,1.62,0.01c0.18,2.15-1.61,4.63,1.05,6.36c1.35,0.98,0.49,2.46,0.83,3.66c-0.56,4.56,2.43,7.05,5.54,9.47
		c2.11,2.97,5.28,2.89,8.41,2.94c1.21,2.98,4.44,4.09,6.14,6.74c2.78,4.33,2.58,7.06-1.55,10.09c-0.81,0.59-1.67,1.65-2.82,0.7
		c-1.17-0.96-0.15-1.89,0.17-2.87c0.41-1.28,2.89-2.09,1.11-3.85c-0.95-0.94-2.31-1.97-3.67-1.54c-1.74,0.55-1.02,2.34-1.02,3.62
		C265.58,232.32,267.59,234.35,266.32,236.74z"/>
	<path class="st24" d="M189.5,232.94c2.58,2.19,4.91,1.36,7.55-0.18c15.63-9.09,31.34-18.05,47.02-27.05
		c3.01,3.91-2.38,4.13-2.87,6.5c-10.55,4.76-20.19,11.14-30.22,16.82c-6.03,3.42-11.95,7.02-18,10.39c-3.89,2.16-8.42-0.49-8.5-4.99
		c-0.15-8.33-0.1-16.67-0.14-25.01c0.48-3.07-0.63-6.41,2.01-9.2c0,8.25-0.03,16.51,0.03,24.76c0.01,1.64-0.55,3.42,0.69,4.9
		C187.32,231.36,188.27,232.26,189.5,232.94z"/>
	<path class="st25" d="M138.92,393.73c-0.45-7.37,1.47-10.95,8.12-13.94c9.21-4.15,18.66-4.22,27.99-0.52
		c7.61,3.02,9.67,6.92,9.3,16.16c-0.07,1.76-0.9,3.71,1.32,4.84c-1.21,3.31-3.95,4.25-7.09,4.58c-3.67-2.25-7.41-1.84-11.5-1.05
		c-6.45,1.25-12.92,0.6-19.09-1.95C143.99,400.22,140.7,397.82,138.92,393.73z"/>
	<path class="st26" d="M399.42,263.39c-3.85,1.84-8.07,2.44-12.12,3.64c-1.4,1.63-3.18,1.31-4.97,0.96
		c-2.75-1.33-5.34-2.98-8.24-4.04c-1.46-0.53-2.73-1.43-2.98-3.19c0.81-3.29,3.83-4.32,6.19-6.03c2.74-1.24,5.66-0.92,8.52-0.94
		c2.03-0.01,3.89-0.54,5.7-1.37c3.28-0.58,6.59-1.37,9.64,0.79C402.02,256.84,402.1,260.35,399.42,263.39z"/>
	<path class="st27" d="M406.02,302.74c-3.93-3.26-5.65-7.47-5.6-12.55c0.09-8.6,0.05-17.2,0.06-25.81
		c4.92,2.45,9.88,4.82,14.02,8.56c-2.2,1.48-4.39,2.95-6.59,4.42c-1.89,3.47-0.54,7.22-0.93,10.82
		C406.45,293.02,408.09,298,406.02,302.74z"/>
	<path class="st0" d="M377.2,255.92c-1.8,1.69-4.22,2.66-5.64,4.81c0.25,3.24,1.02,6.5-0.32,9.69c-2.74,3.57-2.46,8.87-6.33,11.64
		c-0.91-0.17-1.1-0.62-1.1-1.06c-0.13-11.99-0.08-23.99-0.05-35.98c0-0.53,0.33-0.83,0.61-1.17c3.47,0.28,5.44,4.21,9.21,3.76
		C376.59,249.58,378,252.27,377.2,255.92z"/>
	<path class="st28" d="M401.16,253.2c-3.3-0.04-6.6-0.08-9.89-0.13c-1.4-0.84-1.88-2.01-1.33-3.57c0.3-0.97,2.54-0.51,1.83-1.79
		c-0.76-1.37-1.91-3.2-4.17-1.97c-1.46,0.22-2.89,0.32-4.02-0.9c0.76-2.82,3.68-4.41,4.17-7.38c1.89-1.87,2.85-4.8,6-5.23
		c1.34-0.03,2.67-0.36,4.02-0.2c5.77,3.02,7.62,7.22,5.65,12.8C403.28,247.78,400.76,250.09,401.16,253.2z"/>
	<path class="st29" d="M106.4,364.04c3.1-3.13,3.5-10.04,10.67-7.57c0.67,0.23,1.92-0.29,2.5-0.86c2.32-2.29,4.4-2.74,6.53,0.2
		c0.31,0.43,1.19,0.88,1.6,0.74c6.7-2.37,7.35,4.61,10.91,7.04c0.22,0.15,0.05,0.88,0.07,1.34c-0.35,0.31-0.96,0.52-1.06,0.86
		c-1.98,6.28-8.08,5.09-12.5,6.93c-1.64,0.68-3.37,0.94-4.93,0.06c-2.23-1.26-4.43-1.96-7.05-1.49c-1.66,0.3-3.24-0.51-3.59-2.23
		C109.12,366.9,107.35,365.76,106.4,364.04z"/>
	<path class="st30" d="M310.03,391.7c-3.21-0.07-6.4,0.21-9.57-0.87c-2.62-0.9-2.51-0.14-4.9,0.8c-2.64,1.05-5.71,1.55-8.56,0.05
		c-0.26-0.14-0.49-0.38-0.67-0.62c-0.31-0.41,2.51-9.97,3.1-10.09c3.23-0.63,6.57-3.26,9.62,0.4c2.07,1.6,4.43,0.46,6.65,0.69
		c2.62,0.28,5.33,0.18,6.93,2.86C313.2,387.73,312.98,390.24,310.03,391.7z"/>
	<path class="st31" d="M138.92,393.73c9.3,9.82,20.64,11.31,32.95,7.59c3.59-1.08,4.54,2.75,7.28,2.72
		c0.31,0.42,0.54,0.89,0.67,1.39c0.15,1.34,0.14,2.62-1.12,3.51c-2.99-1.97-5.92-1.73-9.42-0.95c-8.25,1.83-16.48,1.35-24.13-2.92
		c-2.63-1.47-4.42-3.73-6.12-6.11C138.99,397.23,138.96,395.48,138.92,393.73z"/>
	<path class="st32" d="M179.15,404.81c-0.06-0.25-0.07-0.51-0.01-0.76c2.4-0.85,4.52-2.2,6.5-3.78c9.14,4.99,18.31,9.94,26.92,15.84
		c-1.05,3.16-3.69,4.03-6.57,4.57c-6.55-2.07-11.99-6.24-17.83-9.63C185.03,409.24,181.21,408.24,179.15,404.81z"/>
	<path class="st0" d="M382.89,282.24c-0.88,9.66,0.66,18.75,6.35,26.87c-1.65,0.92-2.96-0.12-4.22-0.87
		c-5.74-3.43-11.43-6.92-17.14-10.39c0.83-3.5,4.94-3.47,6.57-6.11c0.78-1.04,0.81-2.35,1.27-3.5c1.54-3,2.02-6.5,4.28-9.16
		C382.02,279.17,383.24,279.99,382.89,282.24z"/>
	<path class="st33" d="M106.4,364.04c1.95,1.02,5.23,0.78,3.96,4.73c-0.34,1.05,1.2,1.69,2.35,1.6c0.9-0.07,2.13-0.92,2.62-0.57
		c4.9,3.4,9.89,1.23,14.87,0.48c1.85-0.28,4.84,1.64,3.81-3.05c-0.49-2.25,2.62-2.38,4.66-2.3c0.08,2.94,1.23,6.09-2.95,7.65
		c-1.41,0.53-0.4,3.62-2.43,4.57c-3.31,1.04-6.99,0.85-9.98,3c-0.47,0.33,0.05,0.32-0.41,0.1c-4.12-2-9.08-1.45-12.92-4.25
		c-0.26-2,0.19-3.87-2.57-5.18C104.99,369.67,106.47,366.39,106.4,364.04z"/>
	<path class="st34" d="M364.36,243.84c0,12.36,0,24.73,0,37.52c3.22-3.41,2.67-8.57,6.21-11.4c2.54,4.61,1.95,9.93,3.4,14.79
		c-0.28,2.72-2.39,4.06-4.36,5.38c-1.38,0.93-2.57,1.66-1.22,3.44c0.39,1.72-0.63,2.97-1.43,4.29c-2.2,2.66-4.36,1.18-6.56-0.02
		c-2.61-1.43-0.68-3.19-0.35-4.79c0.31-1.5,0.86-2.95,1.3-4.43c2.9-2.69,1.99-6.08,1.95-9.44c-0.14-12.09-0.03-24.19-0.02-36.29
		C363.66,243.2,364.01,243.52,364.36,243.84z"/>
	<path class="st35" d="M225.44,287.67c2.84-7.54,8.02-13.74,11.92-20.68c2.01-3.58,4.38-6.95,7.79-10.24c0,3.57,0,7.13,0,10.7
		c-1.12,6.65-4.77,11.61-10.42,15.1C231.72,284.4,228.54,285.97,225.44,287.67z"/>
	<path class="st0" d="M414.49,317.44c4.37-2.25,8.99-4.28,9.33-10.2c1.68-2.01,0.22-4.53,1.21-7.03c2.58,3.54,3.59,7.57,5.03,11.34
		c0.75,1.96-0.99,3.38-2.05,4.87c-2.92,4.09-7.02,7.31-8.91,12.15c-3.81-3.59-8.62-5.62-13.03-8.29
		C409.26,320.42,412.11,319.62,414.49,317.44z"/>
	<path class="st36" d="M316.76,372.29c2.46,5.14,3.25,5.48,6.43,2.8c3.09,0.93,6.21,1.79,9.28,2.8c3.79,1.25,5.91,3.88,5.22,7.92
		c-0.48,2.81-5.86,4.92-9.73,4.2c-1.63-1.02-2.94-2.38-4.14-3.86c-0.17-2.59-1.31-4.22-4.12-4.42c-1.53-0.11-2.96-0.59-3.92-1.95
		C316.1,377.28,316.43,374.79,316.76,372.29z"/>
	<path class="st37" d="M477.35,201.66c-2.34-0.02-2.51-1.9-3.17-3.15c-4.75-8.92-11.34-16.21-19.82-21.61
		c-6.86-4.37-14.1-7.64-21.64-1.05c-1.23,1.07-1.92,0.23-2.64-0.63c-0.96-1.15-0.34-2.11,0.58-2.76c3.45-2.44,7.09-4.5,11.56-3.5
		c14.79,3.29,24.48,13.12,32.08,25.42C475.63,196.52,478.17,198.45,477.35,201.66z"/>
	<path class="st38" d="M227.41,127.69c-4.81-1.39-6.2-4.6-5.81-9.45c0.42-5.23,0.05-10.53,0.03-15.8c0.17-1.07,0.41-2.1,1.7-2.94
		c1.01,5.38-0.67,10.79,0.99,15.93c-0.38,2.71,1.09,4.22,3.4,5.18c2.03,1.27,3.77,0.28,5.52-0.68c3.97-2.19,7.95-4.38,11.92-6.56
		c1.13,1.34,0.55,2.7,0.05,4.05C239.27,120.85,233.34,124.27,227.41,127.69z"/>
	<path class="st39" d="M244.86,152.75c-5.21,3.18-10.36,6.46-15.65,9.51c-3,1.73-7.13-0.6-7.45-4.14c-0.25-2.74-0.12-5.51-0.17-8.26
		c0.63-4.6-0.89-9.44,1.53-15.05c1.07,7.03-0.48,13.04,1.27,18.81c0.74,1.64,2.24,2.22,3.8,2.72c1.67,1.82,3.05,0.35,4.5-0.39
		c4.37-2.23,8.27-5.34,12.96-6.97c1.05,0.86,1.05,1.75,0.06,2.66C245.43,152,245.14,152.37,244.86,152.75z"/>
	<path class="st40" d="M390.33,249.54c0.31,1.18,0.63,2.35,0.94,3.53c0.32,2.76-1.71,2.23-3.28,2.32c-3.6,0.2-7.24-0.46-10.8,0.53
		c-1.21-2.77-2.42-5.55-3.63-8.32c0.05-2.17,1.42-2.73,3.29-2.73c2.24,0,4.48-0.03,6.72-0.04c1.58,0,3.16,0.01,4.74,0.01
		C390.42,245.8,390.88,247.46,390.33,249.54z"/>
	<path class="st41" d="M472.58,205.38c-2.21,0.05-2.32-1.89-3.05-3.1c-4.37-7.27-9.69-13.6-17.31-17.68
		c-4.93-2.64-9.9-3.44-14.91-0.2c-0.84,0.54-1.6,0.99-2.46,0.14c-1.1-1.09-0.4-1.94,0.38-2.78c2.99-3.2,7.03-3.85,10.74-2.75
		c13.04,3.87,21.19,13.32,26.98,25.12C473.09,204.42,472.71,204.95,472.58,205.38z"/>
	<path class="st42" d="M437.55,375.77c0.01,5.15-1.77,6.76-6.76,5.46c-2.56-0.67-4.37-0.32-6.29,1.46c-2.5,2.31-5.26,2.6-7.7-0.18
		c-1.8-2.05-3.98-2.05-6.35-1.62c-4.73,0.86-5.98-0.17-6.13-5.05c2.44-0.46,4.96,0.01,7.38-0.65c1.63-0.03,3.12,0.45,4.55,1.2
		c2.81,2.86,5.64,2.83,8.49,0.05c0.6-0.32,1.25-0.49,1.92-0.58C430.29,375.62,433.93,376.59,437.55,375.77z"/>
	<path class="st43" d="M195.48,361.79c-0.03,4.59-1.18,5.89-5.29,4.69c-3.28-0.96-5.55-0.18-7.95,1.88
		c-2.09,1.79-4.71,2.03-6.6-0.09c-2.18-2.44-4.4-2.82-7.37-1.92c-3.73,1.13-5.12-0.55-4.32-4.25c1.74-1.63,4.01-1.29,6.09-1.68
		c1.41-0.01,2.73,0.4,4.01,0.95c5.24,3.65,5.24,3.65,10.59,0.04c0.64-0.26,1.3-0.39,1.99-0.44
		C189.57,361.3,192.54,361.33,195.48,361.79z"/>
	<path class="st44" d="M346.46,269.18c-0.02,5.54-0.05,11.08-0.08,16.61c-5.25-3.07-10.49-6.14-15.74-9.21
		c3.15,0.06,6.02-0.67,8.37-2.92C341.5,272.17,343.98,270.67,346.46,269.18z"/>
	<path class="st45" d="M468.63,210.77c-3.32-3.53-4.75-7.89-8.03-10.89c-3.1-2.84-6.08-5.73-10.07-7.23
		c-3.1-1.17-6.29-1.81-9.17,0.63c-1.04,0.88-2.06,1.61-3.1,0.16c-0.9-1.26-0.29-2.33,0.69-3.27c2.23-2.14,5.06-2.67,7.8-1.93
		c10.96,2.99,17.72,10.73,22.49,20.56C469.38,209.08,469,209.61,468.63,210.77z"/>
	<path class="st46" d="M267.21,217.19c-4.8,2.26-7.59,1.28-8.41-2.94c1.33-1.81,0.4-3.48-0.31-5.19c-0.81-1.96-2.25-4.44,0.65-5.48
		c2.54-0.92,5.25-0.07,6.47,2.83C267.07,209.85,267.86,213.43,267.21,217.19z"/>
	<path class="st47" d="M437.55,375.77c-3.35,3.52-7.35,0.33-10.97,1.07c1.33-2.63,1.18-5.75,2.81-8.28
		c2.04,0.34,4.04,1.68,6.15,0.18c0.82-0.58,2.2-0.81,1.35-2.32c-2.16-3.82,1.41-3.85,3.19-4.14c3.06-0.5,2.08,2.21,2.25,3.83
		c0.11,1.06,0.02,2.14,0.02,3.21C439.56,370.59,436.45,371.62,437.55,375.77z"/>
	<path class="st48" d="M403.42,244.82c-0.33-5.08-0.48-10.25-6.58-12.23c-0.52-0.35-1.27-0.9-1.12-1.38c1.64-5-2.03-5.83-5.35-6.96
		c-0.46-2.99,1.67-3.86,3.81-3.82c2.94,0.06,6.41,0.8,6.86,4.2c0.74,5.69,4.36,10.37,4.96,16.06
		C406.25,242.96,406.47,244.8,403.42,244.82z"/>
	<path class="st49" d="M195.48,361.79c-3.02,2.14-6.09,0.18-9.14,0.13c0.41-2.76,0.2-5.65,1.79-8.15c1.71,0.76,3.47,1.26,5.3,0.5
		c0.81-0.33,2.27-0.9,1.8-1.7c-3.38-5.73,2.14-3.83,4.12-4.91c0.51-0.28,1.17-0.3,1.76-0.43c0.03,2.45,0.05,4.9,0.08,7.36
		c-1.45,2.49-4.77,3.42-5.47,6.54C195.58,361.33,195.5,361.55,195.48,361.79z"/>
	<path class="st47" d="M170.46,361.2c-2.01,1.46-4.29,0.97-6.51,0.9c-2.13-2.34-0.97-7.06-5.54-7.64c0-1.7,0.01-3.4,0-5.11
		c-0.01-1.97,1.29-2.23,2.81-2.15c1.53,0.08,3.43,1.14,3.01,2.23c-2.41,6.25,2.54,3.67,4.83,4.23c0.44,0.11,0.92,0,1.39-0.01
		C172.3,356.18,172.35,358.69,170.46,361.2z"/>
	<path class="st50" d="M411.69,375.96c-2.48,1.66-4.93,1.38-7.37-0.11c-0.14-2.62,0.05-4.83-3.38-6.36
		c-3.21-1.43-1.07-5.47-1.37-8.35c1.5,0.35,3,0.65,4.48,1.05c1.12,0.3,2.28,1.04,1.6,2.26c-2.83,5.13,1.26,3.86,3.7,4.11
		c0.76,0.08,1.54,0.01,2.32,0.02C413.52,371.04,413.4,373.5,411.69,375.96z"/>
	<path class="st51" d="M206.05,420.01c2.32-1.05,4.58-2.19,6.52-3.89c5.4,1.12,4.41,5.32,4.39,9.06c-3.86,3.25-7.57,2.71-11.2-0.41
		C204.82,423.12,204.4,421.5,206.05,420.01z"/>
	<path class="st52" d="M429.33,333.1c0.64-0.57,1.28-1.14,1.92-1.71c1.6-2.42,3.94-3.73,6.66-4.48c2.87,4.58,4.24,9.78,6.2,14.74
		C438.79,339.49,433.81,336.73,429.33,333.1z"/>
	<path class="st0" d="M453.76,295.25c-2.24,1.48-4.49,2.96-6.73,4.44c-1.22,0.08-2.44,1.18-3.67,0.01
		c-1.59-4.32-3.17-8.63-4.76-12.95C444.17,288.65,448.89,292.08,453.76,295.25z"/>
	<path class="st53" d="M109.98,375.99c1.7,1.04,4.26,0,5.16,0.56c4.97,3.09,9.62,1.72,14.5,0.21c1.07-0.33,2.43,0.23,3.65,0.38
		c-0.28,2.5,0.05,5.69-4.2,3.62c-0.25-0.12-0.71-0.19-0.9-0.05c-4.5,3.47-8.94,0.44-13.46,0.1
		C111.25,380.55,109.48,379.68,109.98,375.99z"/>
	<path class="st54" d="M315.77,379.78c1.48,0.24,2.96,0.67,4.45,0.7c4.06,0.08,5.58,1.81,4.04,5.75c-1.77,1.79-4.05,1.2-6.17,1.32
		c-2.19,0.02-4.28-0.25-5.94-1.89c-2-2.38-4.63-3.09-7.64-3.18c-1.83-0.05-4,0.96-5.45-1.11c4.26-0.02,8.52-0.03,12.78-0.05
		C313.34,381.31,314.95,381.55,315.77,379.78z"/>
	<path class="st37" d="M464.35,212.35c0.25,1.27-0.03,1.83-0.67,2.04c-0.99,0.32-1.33-0.53-1.68-1.18c-1.92-3.53-3.9-6.95-7.6-9.03
		c-2.76-1.55-5.42-3.03-8.57-1.09c-1,0.61-2.05,0.97-2.82-0.24c-0.94-1.48,0.33-2.24,1.23-3.03c2.02-1.76,4.22-1.36,6.49-0.5
		C457.33,201.81,461.23,207.03,464.35,212.35z"/>
	<path class="st55" d="M264.67,269.95c2.18-2.94,4.89-0.36,7.32-0.71c0.64,3.03,1.28,6.05,1.92,9.08c0.03,1,0.05,1.99,0.08,2.99
		c0.06,1.76,0.85,3.85-1.94,4.35c-0.04-2.31,0.16-4.69-1.87-6.42C267.62,276.57,266.19,273.23,264.67,269.95z"/>
	<path class="st56" d="M309.26,354.57c-1.57,1.14-3.14,1.1-4.7-0.03c2.27-3.39-1.09-5.53-1.83-8.26c2.86-4.52,5.1-4.56,9.26-0.12
		C312.07,349.28,308.34,351.17,309.26,354.57z"/>
	<path class="st57" d="M457.35,215.75c0.04,1.74-0.25,3.08-2.45,3.05c-2.56-0.03-5.56-3.6-5.61-6.94c-0.03-2.03,1.29-3.59,3.08-3.08
		C455.6,209.72,457.04,212.46,457.35,215.75z"/>
	<path class="st58" d="M317.49,386.35c2.26-0.04,4.51-0.08,6.77-0.12c2.02,0.49,3.47,1.53,3.68,3.77
		c-2.92,3.56-6.81,1.42-10.28,1.75C316.68,389.98,317.75,388.15,317.49,386.35z"/>
	<path class="st59" d="M360.67,127.55c9.09,5.28,18.19,10.57,27.28,15.85c-0.22,0.38-0.45,0.77-0.67,1.15
		c-9.16-5.27-18.32-10.53-27.48-15.8C360.1,128.35,360.38,127.95,360.67,127.55z"/>
	<path class="st60" d="M459.12,245.77c-8.94-5.16-17.87-10.32-26.81-15.48c0.21-0.36,0.41-0.72,0.62-1.08
		c9.02,5.01,18.13,9.87,26.77,15.54C459.51,245.09,459.32,245.43,459.12,245.77z"/>
	<path class="st61" d="M253.25,204.79c-1.15-1.02-0.73-2.4-0.83-3.66c4.04-2.47,8.08-4.94,12.12-7.41
		C263.69,200.37,257.57,201.67,253.25,204.79z"/>
	<path class="st60" d="M387.3,157.44c-9.26-5.38-18.53-10.76-27.79-16.14c0.22-0.37,0.44-0.75,0.66-1.12
		c9.28,5.35,18.56,10.71,27.84,16.06C387.77,156.64,387.53,157.04,387.3,157.44z"/>
	<path class="st62" d="M245.2,117.43c-0.02-1.35-0.03-2.7-0.05-4.05c3.36-2.58,7.1-4.51,10.93-6.27c0.28,3.01-1.28,4.81-3.8,6.14
		C249.86,114.53,247.55,116.03,245.2,117.43z"/>
	<path class="st63" d="M459.24,258.64c-8.94-5.15-17.87-10.31-26.81-15.46c0.23-0.4,0.46-0.8,0.69-1.2
		c8.93,5.15,17.86,10.31,26.78,15.46C459.69,257.84,459.47,258.24,459.24,258.64z"/>
	<path class="st64" d="M311.98,346.15c-3.11-1.79-6.22-3.44-9.26,0.12c-1.89-3.57,1.25-4.52,3.23-5.85c2.5-1.68,4.93,0.16,6.79,1.27
		C314.51,342.74,312.36,344.63,311.98,346.15z"/>
	<path class="st65" d="M258.93,272.81c1.56-0.61,3.11-1.21,4.67-1.82c2.01,3.04,1.9,6.1,0.07,9.17c-0.04,0.99-0.09,1.97-0.13,2.96
		c-0.84,0.61-1.7,0.75-2.59,0.09c-0.19-1.05,0.06-2.24-1-2.99C259.61,277.74,259.27,275.28,258.93,272.81z"/>
	<path class="st66" d="M245.71,151.63c-0.02-0.89-0.04-1.77-0.06-2.66c3.1-2.74,6.87-4.37,10.46-6.3
		C255.31,147.77,252.47,150.22,245.71,151.63z"/>
	<path class="st67" d="M390.37,224.25c2.91-2.23,4.51,1.58,7.05,1.69c0.92,0.04-0.46,2.35-0.87,3.56c-0.4,1.18,0.04,2.08,0.29,3.09
		c-0.97,0.37-1.95,1.59-2.92-0.01c-1.85-0.92-1.91-2.9-2.69-4.47C390.94,226.83,390.66,225.54,390.37,224.25z"/>
	<path class="st68" d="M317.49,386.35c2.95,1.71,0.97,3.58,0.17,5.41c-2.55-0.02-5.09-0.04-7.63-0.06c1.35-1.79,1.67-3.94,2.12-6.04
		C313.97,385.54,315.6,386.93,317.49,386.35z"/>
	<path class="st60" d="M459.31,251.84c-4.85-3.03-10.17-5.28-14.12-9.78c4.97,2.91,9.93,5.81,14.9,8.72
		C459.82,251.13,459.57,251.49,459.31,251.84z"/>
	<path class="st69" d="M366.97,297.85c0.31-1.57,0.63-3.15,0.94-4.72c1.17-1.21,2.9-1.51,4.17-2.61c2.81-2.44,3.14-0.36,3.27,1.92
		c-1.87,2.67-5.24,3.25-7.48,5.4c0,0-0.45,0.03-0.45,0.03L366.97,297.85z"/>
	<path class="st70" d="M372.37,141.09c5.19,2.12,10.05,4.81,14.41,8.38C381.58,147.38,376.69,144.74,372.37,141.09z"/>
	<path class="st71" d="M391.23,228.12c0.82,1.53,2.98,2.26,2.69,4.47c-2.72,0.78-3.34,4.22-6.17,4.86
		C388.57,234.21,391.32,231.7,391.23,228.12z"/>
	<path class="st72" d="M195.71,361.13c-1.42-4.89,2.91-4.98,5.47-6.54C201.77,358.78,198.63,359.86,195.71,361.13z"/>
	<path class="st73" d="M248.7,202.95c0.01,1.52,0.02,3.04,0.04,4.55c-0.92,0.38-1.84,0.76-2.76,1.15c-0.06-1.27-0.13-2.53-0.19-3.8
		C246.75,204.21,247.73,203.58,248.7,202.95z"/>
	<path class="st74" d="M137.89,223.55c6.89-4.01,13.91-7.82,20.63-12.1c3.34-2.13,5.87-1.89,8.49,0.76c-0.47,1.86-2.01,2.67-3.5,3.5
		c-8.24,4.62-16.24,9.66-24.58,14.11c-4.46,2.38-6.7,5.47-6.37,10.71c0.35,5.71,0.1,11.45,0.07,17.18
		c-0.01,1.84,0.19,3.73-0.77,5.45c-3.19,1.12-4.72-0.3-5.17-3.37c0.02-8.15,0.06-16.31,0.06-24.46c0-1.85-0.14-3.7,0.93-5.36
		C130.73,227.29,134.4,225.56,137.89,223.55z"/>
	<path class="st75" d="M126.68,259.78c0.9,2.01,2.81,2.66,4.61,3.45c2.02-0.21,3.92-1.61,6.06-0.56c0.65,1.03,0.7,2.14,0.43,3.29
		c-0.15,0.45-0.41,0.83-0.78,1.13c-3.22,0.19-5.53,4.63-9.35,1.98c-3.57-1.62-4.63-4.56-4.57-8.26c0.1-6.32,0.02-12.64,0.02-18.97
		c0-2.15,0.08-4.26,2.82-6.18c0,6.65-0.05,12.71,0.03,18.77C125.96,256.22,125.34,258.15,126.68,259.78z"/>
	<path class="st76" d="M137,262.55c-1.87,0.49-3.54,2.67-5.71,0.69c0.01-7.58,0.41-15.18-0.09-22.72
		c-0.39-5.84,1.96-9.05,6.89-11.71c9.78-5.27,19.29-11.04,28.91-16.6c2.65,0.7,2.35,2.88,2.39,4.85c0.09,4.92,0.15,9.84,0.22,14.76
		c-0.67,4.59,1.12,9.71-2.98,13.54c-5.73,5.54-13.08,8.58-19.83,12.49C143.69,259.65,141.01,262.56,137,262.55z"/>
	<path class="st77" d="M230.03,229.05c0.05,0.21,0.09,0.42,0.15,0.63c-3.06,3.44-7.37,4.96-11.19,7.21
		c-10.02,5.89-20.04,11.77-30.21,17.41c-7.9,4.78-15.96,9.3-24,13.82c-4.95,2.79-8.97,6.16-7.82,12.72
		c0.18,8.16,0.09,16.3,0.07,24.45c0,1.98,0.12,4.03-1.26,5.73c-2.78,0.92-3.96-0.97-4.05-3.02c-0.44-10.13-2.54-20.25-0.34-30.41
		c0.11-0.49,0.38-0.82,0.64-1.19c1.02-4.89,3.98-7.98,8.34-10.45c20.87-11.84,41.61-23.93,62.37-35.96
		C225.07,228.63,227.33,227.33,230.03,229.05z"/>
	<path class="st78" d="M152.02,276.39c0.14,9.64,0.3,19.28,0.42,28.92c0.03,2.52-0.04,5.03,3.2,5.74c2.85,0.07,5.33-0.84,7.8-2.31
		c6.35-3.77,12.82-7.36,19.23-11.03c1.6-0.91,3.17-2,5.18-1.15c1.18,0.94,1.15,2.01,0.33,3.16c-0.92,0.65-1.83,1.29-2.75,1.94
		c-8.65,5.02-17.32,9.99-25.94,15.07c-4.63,2.73-10.02,0.68-10.23-4.59c-0.4-9.86-0.25-19.75,0-29.61
		C149.32,280.4,149.95,277.91,152.02,276.39z"/>
	<path class="st79" d="M137,267.09c0.1-0.32,0.2-0.64,0.3-0.97c4.39-4.56,10.2-6.83,15.65-9.66c0.57-0.29,1.2,0,1.69,0.45
		c-4.72,7.6-9.38,15.24-14.19,22.78c-1.9,2.97-2.65,6.01-2.61,9.57c0.15,13.16,0,26.32-0.04,39.48c-1.2-1.85-0.68-3.92-0.69-5.89
		C137.04,304.27,137.03,285.68,137,267.09z"/>
	<path class="st80" d="M154.64,256.92c-6.27,2.15-11.28,6.67-17.34,9.21c-0.1-1.19-0.2-2.39-0.3-3.58
		c9.88-5.73,19.75-11.45,29.63-17.18c-0.33,4.03-3.14,6.07-6.3,7.78C158.31,254.22,156.29,255.29,154.64,256.92z"/>
	<path class="st81" d="M144.44,179.71c-3.32,0.14-4.91,3.04-7.34,4.61c-0.07-15.48-0.34-30.96-0.12-46.44
		c0.1-6.88,3.5-12.79,9.27-16.36c10.91-6.76,22.23-12.85,33.38-19.21c2.05-0.11,1.69,1.36,1.52,2.5c-0.33,2.19-1.47,4.05-2.65,5.88
		c-4.67,7.3-8.94,14.85-13.63,22.14c-1.19,1.86-2.02,3.82-2.36,5.99c-1.11,2.15-3.12,3.35-5.13,4.32c-3.91,1.9-6.59,4.75-7.93,8.87
		c-1.62,2.56-1.83,5.39-1.87,8.34c-0.07,5.63,0.51,11.29-0.41,16.91C146.63,178.5,146.2,179.86,144.44,179.71z"/>
	<path class="st82" d="M203.08,106.2c-2.54,4.39-6.52,7.99-7.33,13.33c0.02,0.65-0.12,1.32-0.65,1.66
		c-6.36,4.07-12.51,8.56-19.95,10.61c-2.16-0.98-0.9-2.43-0.23-3.42c8.33-12.29,15.07-25.63,24.31-37.33
		c6.02-4.04,12.34-7.56,18.77-10.89c-1.74,5.9-5.83,10.51-8.76,15.75C207.29,99.4,205.14,102.77,203.08,106.2z"/>
	<path class="st83" d="M199.23,91.05c-2.44,5.77-6.37,10.67-9.56,15.99c-4.48,7.48-9.3,14.77-13.95,22.15
		c-0.41,0.65-1.64,1.25-0.38,2.21c-3.55,4-7.36,7.53-13.26,7.23c-1.31-1.76-0.23-3.18,0.66-4.62c5.19-8.36,10.45-16.67,15.51-25.11
		c1.15-1.91,3.12-3.95,1.37-6.6C185.9,98.1,192.48,94.43,199.23,91.05z"/>
	<path class="st84" d="M352.1,196.48c-0.48-2.4-2.26-4.41-2.05-7.04c0.12-1.57,0.05-3.22,1.76-3.96c1.52-0.65,3.03-0.35,4.38,0.65
		c2.73,2.01,4.56,4.63,5.12,7.98c0.34,2,0.43,4.13-1.66,5.38c-1.97,1.18-3.53-0.11-5.06-1.14c-0.88-0.59-1.7-1.29-2.55-1.93
		L352.1,196.48z"/>
	<path class="st85" d="M352.04,196.42c0.77,2.88,2.91,4.52,5.61,4.67c3.03,0.17,3.97,1.97,4.53,4.29c0.31,1.27,0.89,2.93-0.48,3.82
		c-1.2,0.79-2.27-0.5-3.29-1.09c-2.8-1.6-5.6-3.2-8.34-4.91c-1.82-1.14-2.07-2.97-1.6-4.89c0.47-1.94,1.96-2.11,3.63-1.84
		C352.1,196.48,352.04,196.42,352.04,196.42z"/>
	<path class="st86" d="M146.24,177.82c0.01-6.32,0.09-12.65-0.01-18.97c-0.05-3.07,0.62-5.77,2.87-7.96
		c1.69,1.78,1.35,4.04,1.36,6.17c0.06,10.38-0.03,20.75,0.06,31.13c0.02,2.58-0.3,5.33,1.86,7.4c2.55,2.1,4.7,0.34,6.75-0.87
		c14.62-8.62,29.37-17.02,44.11-25.43c2.54-1.45,4.79-3.92,8.21-3.32c0.67,3.83-2.48,5.2-4.66,7.19
		c-7.47,3.03-14.02,7.76-21.04,11.62c-10.42,5.73-20.54,12.01-30.82,18c-4.13,2.4-7.56,0.58-8.66-4.47
		C143.61,191.49,144.34,184.65,146.24,177.82z"/>
	<path class="st87" d="M146.24,177.82c0.01,6.83,0.02,13.66,0.03,20.5c-2.58,3.74-5.16,7.49-8,11.61
		c-1.18-11.07-1.35-21.42,6.16-30.21C145.04,179.08,145.64,178.45,146.24,177.82z"/>
	<path class="st88" d="M229.15,189.01c-0.05,3.55-0.14,7.09-0.15,10.64c-0.01,5.03-1.93,8.94-6.4,11.49
		c-4.56,2.59-9.06,5.28-13.64,7.84c-2.58,1.44-5.54,1.32-5.54-2.05c-0.01-8.07-1.94-16.34,1.58-24.19
		c5.37-4.93,12.03-7.81,18.24-11.39c3.23-1.86,5.29-0.57,5.69,3.08C229.09,185.95,229.08,187.48,229.15,189.01z"/>
	<path class="st89" d="M232.12,179.62c-0.25-2.5,1.14-4.18,3.32-5.43c5.63-3.23,11.27-6.44,16.84-9.76c3-1.79,3.74-0.65,3.75,2.35
		c0,2.76-1.02,4.7-3.44,6.06c-5.52,3.11-10.96,6.37-16.5,9.45C232.89,184.06,232.11,183.49,232.12,179.62z"/>
	<path class="st90" d="M251.37,194.76c-0.54,0-1.08-0.01-1.62-0.01c0-5.99,0-11.97,0-17.96c0.54,0.01,1.08,0.02,1.62,0.03
		C251.37,182.8,251.37,188.78,251.37,194.76z"/>
	<path class="st91" d="M238.56,189.95c-0.44,4.04,0.47,8.19-0.54,12.19c-0.55,0.01-1.09,0.01-1.64,0.02c0-5.01,0-10.02,0-15.02
		c0.34-0.81,0-2.21,0.98-2.35c1.27-0.18,1.06,1.15,1.13,1.99C238.57,187.82,238.54,188.89,238.56,189.95z"/>
	<path class="st92" d="M233.98,189.02c0,5.05,0,10.1,0,15.14c-0.37,0.01-0.74,0.03-1.11,0.04c-0.29-5.07-0.58-10.13-0.87-15.2
		c0.2-0.87,0.1-2.03,1.35-2.03C233.56,186.98,233.77,188.31,233.98,189.02z"/>
	<path class="st93" d="M255.36,174.63c0,5.71,0,11.42,0,17.13c-0.26,0-0.52,0-0.77-0.01c0-5.71,0-11.43,0-17.14
		C254.84,174.62,255.1,174.63,255.36,174.63z"/>
	<path class="st94" d="M247.01,196.46c-0.37,0.31-0.73,0.61-1.1,0.92c-1.21-3.66,0.3-7.52-0.86-11.18c0,0,0.02-0.07,0.02-0.07
		c1.3-1.97,0.27-4.45,1.94-6.46C247.01,185.27,247.01,190.87,247.01,196.46z"/>
	<path class="st95" d="M243.02,196.52c-0.37,0.95-0.73,1.91-1.1,2.86c-0.27-0.01-0.54-0.01-0.81-0.02c0-2.21,0-4.42,0-6.62
		c0-3.47,0-6.94,0-10.42C243.2,186.97,241.21,191.92,243.02,196.52z"/>
	<path class="st96" d="M155.58,279.26c-0.6-4.8,1.81-8.03,5.69-10.28c8.96-5.22,17.99-10.32,26.99-15.47
		c4.42,0.85,9.09-0.67,13.37,1.4c1.56,1.85,2.21,1.65,5.08-1.63c2.87-1.11,4.31,0.99,5.93,2.66c-2.33,3.38-6.41,4.22-9.49,6.52
		c-2.07,1.52-4.62,2.22-6.66,3.81c-1.13,0.7-2.19,1.52-3.5,1.84c1.35-0.36,2.5-1.11,3.63-1.91c2.05-1.48,4.56-2.18,6.56-3.75
		c3.39-2.14,7.18-3.63,10.19-6.38c0.29-0.32,0.62-0.6,0.99-0.83c1.76-0.79,3.38-2.1,5.51-1.54c1.02,0.5,1.79,1.25,2.14,2.36
		c0.13,1.35-1.45,1.19-1.83,1.99c1.29-0.61,2.34-1.59,3.18-2.8c4.74-2.69,6.35-2.25,9.49,2.61c0.63,4.91,0.5,9.66-2.9,13.72
		c-5.38,5.27-11.47,9.29-19.04,10.7c-2.4-1.49-5.04-1.81-7.81-1.78c-2.22,0.02-4.56,0.46-6.54-1.09c-1.08-1.92,0.29-2.35,1.48-2.8
		c-1.61,0.02-2.19,1.5-3,2.71c-3.06,2.11-6.04,2.3-8.91-0.36c-0.1-1.47,1.31-1.7,2.06-2.47c3.73-2.16,7.48-4.31,11.19-6.52
		c0.95-0.71,2.04-1.18,3.06-1.77c-1.16,0.51-2.24,1.15-3.26,1.89c-3.79,2.13-7.54,4.33-11.26,6.58c-2.19,1.33-4.03,3.31-6.76,3.66
		c-2.72,0.02-5.45,0.97-8.15-0.16c-1.28-2.07-1.15-4.24-0.45-6.44c0.96-1.87,2.44-1.42,4-0.69c-1.06-1.15-2.12-0.88-3.19-0.32
		c-1.55,2.04-3.97,2.95-5.86,4.55c-0.5,0.44-1.04,0.8-1.63,1.11c-1.29,0.54-2.38,1.48-3.76,1.83
		C159.83,280.57,157.56,280.91,155.58,279.26z"/>
	<path class="st97" d="M221.73,256.01c-0.98-0.4-1.63-1.1-1.97-2.1c-0.2-1.11,0.76-1.38,1.37-1.91c1.19-0.61,2.26-1.49,3.62-1.72
		c-1.55,0.23-2.76,1.18-4.02,2.01c-2.03,1.49-4.53,2.15-6.51,3.72l0.04-0.03c-0.6,0.54-1.22,0.59-1.84,0.03
		c-2.05-0.28-3.38-2.43-5.63-2.18c-0.9,1.88-2.33,2.73-4.42,2.27c-2.88-1.69-6.05-0.85-9.11-1.03c-1.81-0.11-3.81,0.43-5.02-1.57
		c13.86-8.14,27.58-16.53,41.92-23.83c2.18,0.53,2.87,2.03,2.85,4.13c-0.08,8.02-0.12,16.03-0.17,24.05
		c-2.74-2.03-5.23-5.26-9.1-1.89C223.09,256.52,222.42,256.57,221.73,256.01z"/>
	<path class="st98" d="M211.46,282.07c6.16-3.5,12.33-7,18.49-10.49c-0.57,3.23-2.33,5.82-5.06,7.39
		c-12.19,7.02-24.47,13.86-36.73,20.76c0-1.16,0.05-2.33-1.23-2.96c-0.01-1.24,0.76-2.02,1.71-2.57
		c6.85-3.91,13.66-7.89,20.55-11.72C209.9,282.1,210.68,282.04,211.46,282.07z"/>
	<path class="st5" d="M245.05,186.2c1.6,3.63,0.35,7.47,0.86,11.18C244,193.78,245.37,189.92,245.05,186.2z"/>
	<path class="st99" d="M437.91,326.92c-1.64,2.35-4.33,3.15-6.66,4.48c-0.38-3.48,2.02-5.84,4.31-7.28
		C438.09,322.53,437.38,325.69,437.91,326.92z"/>
	<path class="st100" d="M247.36,94.01c-0.56,4.02-1.38,7.94-3.68,11.39C244.07,101.34,245.36,97.56,247.36,94.01z"/>
	<path class="st101" d="M242.3,107.87c-2.62-1.66-4.64-1.76-5.26-3.79c-0.08-0.26,0.46-0.71,0.71-1.07
		C238.97,104.27,241.05,104.79,242.3,107.87z"/>
	<path class="st102" d="M253.42,96.06c-0.27,2.36-1.74,4.06-3.25,5.75c0.25-2.36,1.14-4.39,3.06-5.9L253.42,96.06z"/>
	<path class="st103" d="M253.23,95.91c-0.38-1.69-2.58-1.63-3.12-3.2c3.89,0.12,4.04,0.28,3.31,3.35
		C253.42,96.06,253.23,95.91,253.23,95.91z"/>
	<path class="st104" d="M240.11,147c0-5.42,0.01-9.37,0-13.31c-0.01-1.78,0.94-2.45,2.62-2.44c3.36,0.03,6.72,0.01,11.3,0.01
		C249.28,136.63,245.19,141.25,240.11,147z"/>
	<path class="st105" d="M263.67,280.16c-0.02-3.06-0.04-6.11-0.06-9.17c0.36-0.34,0.71-0.69,1.07-1.04
		c3.26,2.26,4.26,5.84,5.51,9.29C267.93,279,265.81,279.63,263.67,280.16z"/>
	<path class="st106" d="M260.95,283.21c0.86-0.03,1.73-0.06,2.59-0.09c0.56,4.67-0.45,5.52-6.32,4.91
		C258.57,286.34,260.95,285.58,260.95,283.21z"/>
	<path class="st107" d="M272.06,285.66c1.1-1.25,0.05-3.45,1.94-4.35c3.26,3.08,3.16,4.3-0.61,6.39c-0.6,0.33-1.44,1.13-2.05,0.36
		C270.6,287.15,271.98,286.53,272.06,285.66z"/>
	<path class="st108" d="M373.31,285.44c-2.01-4.97-2.52-10.19-2.73-15.48c0.53-3.06-0.8-6.31,0.98-9.24
		c2.66,3.5,8.01,2.71,10.44,6.57c3.09,4.38,4.26,9.52,5.84,14.51c-0.41,1.25-1.18,2.04-2.59,2.01c-0.79-0.52-1.57-1.05-2.36-1.57
		c-0.83-1-1.65-2-2.48-3c-1.27-0.08-1.67-1.12-2.26-1.93c-1.24,2.85,0.53,6.83-3.1,8.95C374.3,286.34,373.64,286.23,373.31,285.44z"
		/>
	<path class="st109" d="M385.24,283.81c0.7-0.61,1.4-1.22,2.11-1.82c2.18-0.75,3.66,0.14,4.71,2.03c0.12,0.8,1.9,1.5,0.14,2.41
		c-0.7-0.45-1.92-1.34-1.44,0.46c0.56,2.1-0.58,3.21-1.69,4.42c-0.69,0.75-1.39,2.02-2.6,1.48c-1.43-0.64-0.52-1.86-0.17-2.78
		C387.16,287.71,385.85,285.83,385.24,283.81z"/>
	<path class="st76" d="M211.45,165.98c-17.78,10.19-35.55,20.4-53.36,30.54c-1.57,0.9-3.18,2.94-5.28,0.77
		c-1.25-1.56-1.29-3.42-1.29-5.29c-0.01-12.36,0.08-24.72-0.04-37.08c-0.05-5.03,1.93-8.43,6.3-10.92
		c16.66-9.48,33.22-19.11,49.81-28.71c1.51-0.87,3.05-1.47,4.81-1.42c2.63,0.94,1.96,3.21,1.96,5.11
		c0.03,14.35,0.01,28.69,0.01,43.04C213.4,163.35,212.43,164.67,211.45,165.98z"/>
	<path class="st110" d="M212.4,113.88c-18.2,10.55-36.37,21.16-54.64,31.6c-3.51,2.01-5.08,4.54-5.04,8.58
		c0.14,14.41,0.08,28.82,0.1,43.24c-3.16-0.68-3.36-3-3.37-5.66c-0.06-13.58-0.22-27.15-0.34-40.73c0.54-3.6,2.64-5.89,5.82-7.56
		c2.51-1.32,4.78-3.11,7.16-4.69c4.91-1.51,8.94-4.63,13.26-7.23c6.94-3.73,13.9-7.43,20.41-11.89c3.27-1.92,6.51-3.89,9.8-5.76
		C207.82,112.46,210.15,112.02,212.4,113.88z"/>
	<path class="st111" d="M392.06,284.01c-1.57-0.68-3.14-1.35-4.71-2.03c-2.33-4.7-4.13-9.59-5.35-14.69
		c1.77-0.09,3.54-0.18,5.31-0.26c3.68,0.57,5.18,2.61,4.86,6.4C391.87,276.93,392.07,280.48,392.06,284.01z"/>
	<path class="st112" d="M413.52,363c-1.57,0.91-2.84,0.89-3.77-0.97c-0.74-1.49-0.99-2.73,0.13-4.25c4.24-5.75,18.47-5.67,22.4,0.18
		c0.98,1.45,1.04,2.81,0.08,4.26c-1.06,1.6-2.36,1.78-3.92,0.8c-0.35-0.28-0.62-0.62-0.81-1.03c-0.6-3.7-3.1-5.16-6.52-5.15
		c-3.09,0.01-5.83,0.85-6.53,4.49C414.39,362.01,414.09,362.59,413.52,363z"/>
	<path class="st49" d="M424.76,377.24c-2.47,3.88-6.01,3.78-8.44-0.24c-1.71-2.53-1.96-5.05,0.08-7.54c2.43,3.03,5.3,2.28,8.24,0.95
		C426.62,372.64,426.18,374.93,424.76,377.24z"/>
	<path class="st113" d="M428.34,362.03c0.03,0.33,0.06,0.67,0.09,1c0.38,3.11-2.23,2.8-3.94,3.26c-5.19,1.38-9.16,0.11-10.98-3.29
		c0.02-0.63,0.04-1.26,0.07-1.89C418.43,362.71,423.35,362.93,428.34,362.03z"/>
	<path class="st114" d="M416.4,369.45c-0.03,2.51-0.06,5.03-0.08,7.54c-1.54-0.34-3.09-0.68-4.63-1.03
		c-0.01-2.46-0.01-4.92-0.02-7.37C413.56,367.16,414.91,368.7,416.4,369.45z"/>
	<path class="st112" d="M424.76,377.24c-0.04-2.28-0.08-4.56-0.11-6.84c0.73-2.81,3.05-1.52,4.74-1.83
		c-0.43,2.93,1.42,6.64-2.81,8.28C425.97,376.97,425.37,377.1,424.76,377.24z"/>
	<path class="st112" d="M170.43,348.95c-3.58-2.91-3.63-4.94-0.21-7.57c4.46-3.42,14.61-3.42,18.94-0.01
		c3.5,2.75,3.16,5.51-0.91,7.52c-1.18-0.38-1.81-1.26-2.18-2.37c-2.85-4.65-8.02-5.31-12.75-1.61
		C172.34,346.24,172.37,348.3,170.43,348.95z"/>
	<path class="st115" d="M184.55,362.16c-4.62,4.61-6.65,4.6-10.38-0.05c-0.37-2.31-0.78-4.62,1.01-6.59
		c3.13,2.92,5.85,2.09,8.33-0.91C185.41,356.92,184.88,359.56,184.55,362.16z"/>
	<path class="st47" d="M187.17,346.22c0.36,0.89,0.72,1.79,1.08,2.68c-5.93,4.5-11.87,3.9-17.82,0.05c0.62-1.54,1.24-3.07,1.86-4.61
		c3.44,4.17,7.66,4.36,12.3,2.42C185.43,346.42,186.2,345.86,187.17,346.22z"/>
	<path class="st116" d="M175.18,355.52c-0.45,2.18,0.86,4.63-1.01,6.59c-1.31,0-2.6-0.08-3.71-0.91c0-2.51,0-5.02-0.01-7.53
		C172.3,353.61,174.39,352.92,175.18,355.52z"/>
	<path class="st116" d="M184.55,362.16c-2.06-2.28-0.61-5.04-1.04-7.55c1.33-1.39,3.03-0.81,4.61-0.85
		c-0.35,2.77,1.27,5.97-1.79,8.15C185.74,362,185.14,362.08,184.55,362.16z"/>
	<path class="st117" d="M206.05,420.01c-0.1,1.59-0.19,3.18-0.29,4.76c-9.02-5.27-18.04-10.54-27.05-15.81
		c0.15-1.38,0.3-2.76,0.45-4.14C188.12,409.88,197.08,414.94,206.05,420.01z"/>
	<path class="st118" d="M179.85,392.79c-7.72,10.6-27.29,11.11-36.45,0.94c-1.18-3.25,0.91-5.06,3.23-6.3
		c9.6-5.14,19.36-5.69,29.07-0.26C177.84,388.37,179.83,389.92,179.85,392.79z"/>
	<path class="st119" d="M179.85,392.79c-6.04-8.29-19.39-10.75-30.59-5.44c-2.69,1.28-5.79,2.54-5.86,6.38
		c-2.09-2.53-0.26-4.51,0.93-6.57c1.76-4.09,5.7-4.91,9.33-5.83c7.24-1.84,14.39-1.54,21.17,2.04c2.4,1.26,4.33,2.89,5.13,5.59
		C180.18,390.24,181.34,391.55,179.85,392.79z"/>
	<path class="st120" d="M179.96,388.95c-8.38-9.28-24.72-10.1-35.63-1.8c-1.6-2.6,1.09-3.29,2.24-4.13
		c7.75-5.65,21.88-5.75,29.84-0.21C178.38,384.19,180.66,385.83,179.96,388.95z"/>
	<path class="st121" d="M390.33,249.54c-0.67-1.57-1.34-3.14-2.01-4.7c0.96-1.33,1.92-2.87,2.88,0.01c0.18,0.55,0.35,1.36,0.76,1.54
		c1.16,0.52,2.72,1.1,2.13,2.44C393.48,250.23,391.61,249.25,390.33,249.54z"/>
	<path class="st122" d="M122.14,358.35c3.73,0.04,7.2,0.13,9.03,3.72c0.56,1.11,0.17,2.35-0.94,3.29
		c-3.84,3.27-8.56,4.24-11.79,2.27c-0.77-0.47-1.34-1.37-2.15-1.65c-1.65-0.57-2.78-1.41-2.55-3.28c0.24-1.9,1.55-2.85,3.27-3.46
		C118.78,358.62,120.54,358.15,122.14,358.35z"/>
	<path class="st123" d="M373.31,285.44c0.7,0.05,1.4,0.1,2.1,0.15c1.26,0.64,1.49,1.68,1.11,2.94c-0.56,1.25,0.29,2.92-1.17,3.9
		c-1.07,0.29-0.28-4.33-2.52-0.95c-1.21,1.82-3.2,1.34-4.92,1.65c-0.91-0.03-1.93,0.12-2.24-1.09c-0.25-1,0.51-1.45,1.22-1.59
		C369.9,289.85,371.36,287.34,373.31,285.44z"/>
	<path class="st124" d="M376.52,288.53c-0.37-0.98-0.74-1.96-1.11-2.94c0.65-3.39,1.3-6.78,1.98-10.29
		c1.56,0.99,2.19,2.54,3.02,3.94C379.11,282.34,377.82,285.43,376.52,288.53z"/>
	<path class="st125" d="M139.87,238.1c3.22-3.57,8.03-4.79,11.78-7.58c2.51-1.87,5.84-2.51,7.38-5.89c0.86-1.89,3.65-1.74,4.94-0.72
		c1.57,1.24-0.81,2.09-1.36,3.16c-1.91,3.75-6.27,2.46-9.14,4.46c-4.09,2.86-8.59,5.12-12.92,7.64
		C140.33,238.82,140.1,238.46,139.87,238.1z"/>
	<path class="st126" d="M161.09,236.9c-8.21,4.99-16.41,9.98-24.62,14.97c-0.39-0.65-0.77-1.31-1.16-1.96
		c7.49-6.2,17-9.03,24.88-14.58C160.48,235.86,160.78,236.38,161.09,236.9z"/>
	<path class="st127" d="M211.46,282.07c-8.17,4.9-16.35,9.8-24.52,14.7c-8.25,4.67-16.49,9.35-24.74,14.01
		c-2.13,1.2-4.27,2.74-6.57,0.27c-0.02-10.6-0.03-21.19-0.05-31.79c2.46,0,4.91,0,7.37,0c1.6,1.32,0.54,2.7,0.43,3.93
		c0.91-1.74,0.22-4.59,2.7-5.84c0.26-0.33,0.51-0.66,0.77-1c2.54,0.65,1.97,2.82,2.05,4.51c0.18,3.98,0.09,7.98-0.06,12.12
		c2.77-1.07,3.07-3.27,3.22-5.66c0.15-2.41-0.64-5,1.2-7.13c2.63-1.53,5.52-0.72,8.3-0.95c1.8,0.99,2.99-1.73,4.78-0.79
		c2.72,1.57,5.5,1.79,8.33,0.31c0.43-0.99,1.11-0.97,1.9-0.45c2.92,1.96,6.17,0.74,9.26,0.89
		C208.27,279.3,210.33,279.62,211.46,282.07z"/>
	<path class="st128" d="M225.1,198.22c-1.06,7.16-4.8,12.2-11.77,14.53c-3.11,1.04-5.4-0.2-6.82-3.11
		c-1.9-3.9,1.11-15.97,6.85-17.85c0.14,0.16,0.28,0.33,0.42,0.49c0.67,1.72-0.31,2.98-1.23,4.22c-1.31,1.77-2.01,3.81-2.65,5.87
		c-0.66,2.1-0.52,4.09,1.54,5.29c2.03,1.19,3.78,0.24,5.48-1.08c2.91-2.26,3.59-6.11,6.29-8.5
		C223.87,197.78,224.5,197.77,225.1,198.22z"/>
	<path class="st129" d="M225.1,198.22c-0.41,0.01-0.81,0.02-1.22,0.02c-0.48-0.11-0.91-0.4-0.97-0.85c-0.62-4.5-2.55-6.78-7.37-4.57
		c-1.03,0.47-1.71-0.26-2.23-1.08c0,0,0.04,0.05,0.04,0.05c2.47-3.96,6.19-5.43,9.51-3.74C225.94,189.61,226.82,193.61,225.1,198.22
		z"/>
	<path class="st130" d="M173.24,280.19c-0.04,1.69-0.33,3.42-0.08,5.07c0.77,5.23-0.61,9.01-5.83,9.93
		c0.54-6.06,1.52-12.45-0.49-18.83c2.01-1.47,4-2.94,6.46-3.6l-0.05-0.07C173.25,275.19,173.24,277.69,173.24,280.19z"/>
	<path class="st131" d="M173.3,272.76c1.14-1.17,2.68-2.96,4-2.02c1.38,0.98,0.61,3.31,0.45,5.23c-2.01-0.52-2.04-3.62-4.5-3.27
		C173.25,272.7,173.3,272.76,173.3,272.76z"/>
	<path class="st132" d="M199.51,270.15c-3.47,2.65-7.07,5.06-11.29,6.38l-0.13-0.14c3.25-2.96,7.08-4.94,11.11-6.59
		C199.3,269.91,199.41,270.03,199.51,270.15z"/>
	<path class="st133" d="M212.44,256.02c0.61-0.01,1.23-0.02,1.84-0.03c-3.14,3.11-7.02,5.01-11.04,6.69
		c-0.11-0.12-0.21-0.24-0.32-0.36C206.09,260.22,209.26,258.12,212.44,256.02z"/>
	<path class="st134" d="M218.75,264.17c2.3-2.26,5.28-3.3,8.11-4.64c-2.08,2.5-4.78,4-7.78,5.01
		C218.97,264.42,218.86,264.29,218.75,264.17z"/>
	<path class="st130" d="M166.07,277.35c-0.77,2.23-1.55,4.47-2.77,8.01c-0.17-2.96-0.26-4.53-0.36-6.1
		C163.61,278,164.49,277.12,166.07,277.35z"/>
	<path class="st135" d="M189.88,264.19c1.6-2,4.11-2.48,6.33-3.5c-1.52,1.99-3.66,3.07-6.02,3.84L189.88,264.19z"/>
	<path class="st136" d="M199.2,269.79c1.56-1.82,3.74-2.55,6-3.17c-1.54,1.71-3.45,2.87-5.68,3.52
		C199.41,270.02,199.31,269.91,199.2,269.79z"/>
	<path class="st137" d="M196.72,266.44c-1.52,1.8-3.69,2.46-5.89,3.13c1.42-1.82,3.37-2.83,5.56-3.5
		C196.5,266.19,196.61,266.31,196.72,266.44z"/>
	<path class="st138" d="M212.55,268.28c-1.62,1.86-3.82,2.62-6.11,3.24c1.5-1.92,3.58-2.87,5.8-3.59
		C212.34,268.05,212.45,268.16,212.55,268.28z"/>
	<path class="st139" d="M219.08,264.54c-1.83,1.86-4.09,2.96-6.53,3.74c0,0-0.31-0.34-0.31-0.34c1.8-1.89,4.08-2.95,6.51-3.76
		C218.85,264.3,218.96,264.43,219.08,264.54z"/>
	<path class="st136" d="M190.19,264.54c-1.62,1.86-3.81,2.63-6.09,3.26c1.49-1.93,3.56-2.89,5.79-3.6
		C189.88,264.19,190.19,264.54,190.19,264.54z"/>
	<path class="st140" d="M202.38,256.11c1.47-0.76,2.95-1.51,4.42-2.27c-0.12,3.35-3.02,3-5.06,3.8
		C201.96,257.13,202.17,256.62,202.38,256.11z"/>
	<path class="st141" d="M196.55,278.3c-0.63,0.15-1.27,0.3-1.9,0.45c1.05-2.85,3.75-3.04,6.5-4.41
		C199.92,276.81,197.62,276.77,196.55,278.3z"/>
	<path class="st139" d="M203.24,262.68c-1.81,1.88-4.1,2.94-6.52,3.76c-0.1-0.13-0.21-0.25-0.33-0.37c1.82-1.87,4.09-2.96,6.53-3.75
		C203.02,262.45,203.13,262.57,203.24,262.68z"/>
	<path class="st142" d="M186.32,278.45c-1.65-0.09-2.76,3.1-4.78,0.79c2.33-0.62,4.03-2.67,6.55-2.85c0,0,0.13,0.14,0.13,0.14
		C187.59,277.17,186.95,277.81,186.32,278.45z"/>
	<path class="st143" d="M214.23,256.02c1.54-2.28,4.01-3.03,6.4-3.93c0.11,0.12,0.22,0.25,0.32,0.37c-0.4,0.49-0.79,0.97-1.19,1.46
		C217.76,254.19,216.41,256.19,214.23,256.02z"/>
	<path class="st144" d="M221.73,256.01c0.67-0.02,1.35-0.03,2.02-0.05c-1.43,2.15-3.81,2.68-6.26,4.03
		C218.19,257.33,220.81,257.63,221.73,256.01z"/>
	<path class="st145" d="M214.69,249.46c3.26-1.9,6.52-3.79,9.78-5.69c0.21,0.33,0.41,0.66,0.62,0.99c-3.21,1.9-6.42,3.8-9.63,5.7
		C215.2,250.12,214.94,249.79,214.69,249.46z"/>
	<path class="st146" d="M220.63,252.09c1.59-2.01,4.12-2.47,6.31-3.53c-1.45,2.09-3.65,3.09-5.99,3.9
		C220.84,252.34,220.73,252.22,220.63,252.09z"/>
	<path class="st147" d="M161.01,185.39c3.1-4.38,3.49-10.6,10.14-11.83c1.1-0.2,1.15-1.73,1.54-2.72c2.19-5.61,4.43-11.2,6.53-16.84
		c1.05-2.81,2.26-3.57,4.28-0.84c2.45,3.3,4.66,4.28,7.05-0.21c1.52-2.85,2.8-1.18,3.76,0.69c1.83,3.54,3.65,4.48,5.5,0
		c0.91-2.21,2-1.57,3.46-0.34c6.31,5.34,6.42,5.43-0.48,9.47c-12.93,7.58-25.95,15.02-38.95,22.49
		C163.23,185.62,162.6,186.21,161.01,185.39z"/>
	<path class="st148" d="M202.22,136.6c-0.32,2.65-2.1,4.88-5.12,5.66c-1.55,0.4-2.46-1.16-2.28-2.71c0.38-3.31,2.3-5.9,5.34-6.81
		C202,132.18,202.19,134.46,202.22,136.6z"/>
	<path class="st149" d="M428.34,362.03c-5.12,2.9-10.06,2.95-14.76-0.92c0.76-3.94,3.76-6.06,8.32-5.41
		C425.43,356.21,429.15,356.94,428.34,362.03z"/>
	<path class="st150" d="M187.17,346.22c-2.91,3.47-6.86,3.14-10.68,2.69c-2.47-0.28-4.4-1.57-4.19-4.57
		C176.94,339.41,184.81,340.4,187.17,346.22z"/>
	<path class="st151" d="M122.36,360.2c2.44,0.12,5.7,0.02,5.69,3.08c-0.01,2.28-2.95,3.38-5.39,3.37c-2.58,0-5.56-0.91-5.63-3.61
		C116.93,360.11,119.98,360.15,122.36,360.2z"/>
	<path class="st152" d="M213.32,191.74c0.86,0.57,1.59,0.36,2.55-0.04c5.49-2.28,7.17-1.2,7.68,4.72c0.05,0.61,0.22,1.21,0.33,1.82
		c-2.13,3.17-3.33,6.89-6.38,9.54c-2.17,1.88-4.47,2.42-6.75,1.21c-2.47-1.31-2.48-3.79-2.16-6.46
		C209.08,198.37,213.04,195.89,213.32,191.74z"/>
</g>
</svg>
